<svg version="1.0" xmlns="http://www.w3.org/2000/svg" width="346.667" height="346.667" viewBox="0 0 260 260"><path d="M93.8.7c0 .5-.1 1.9-.2 3.3-.1 2.4-.3 2.5-7.1 2.5h-7L79 10c-.3 2.1-1.1 3.6-2 3.6-.8.1-2.3.2-3.2.3-1.4.1-1.8 1-1.8 3.5 0 3.3-.2 3.5-3.7 3.8l-3.7.3V28c.1 6.9-.5 7.9-4.2 7.5-1.5-.1-2.5.4-2.8 1.4-.2.9-.3 10.7-.2 21.9l.1 20.2H35.3l.1-3.3c.1-3.1-.1-3.2-4.4-3.7-2.5-.3-5.7-.3-7.3-.1l-2.7.3v21.4h10.8l10.7-.1v21.9H39l-3.5.1v18.3c0 17.7 0 18.3 2 18.1 5.8-.4 5.6-.7 5.5 10.3-.3 19.8-.5 18.8 3.5 18.8 3.3 0 3.5.2 3.5 3.4 0 3.3.2 3.5 3.7 3.8l3.7.3v7c.1 6.7.2 7 2.6 7.1 4.8.3 5.1.4 4.9 2.1-.5 5.1-.3 5.3 7.1 5.3h7v3.4c0 3.3.2 3.5 3.7 3.8l3.7.3-.1 6.5c-.1 3.6-.2 6.9-.2 7.3-.1.5-1.1.8-2.3.7-4.7-.4-4.8-.3-4.8 7.3v7.2h-3.2c-3.9 0-3.8-.2-3.8 7.5v6h18c20.4 0 18.4 1 18-9.2-.1-4.6-.1-4.6 3-4.4 3.9.3 4.5-.6 4.5-7.4 0-3 .3-6 .7-6.5.9-1.4 19.8-1 20.8.4.4.7.5 2.3.2 3.6-.4 2.1 0 2.4 3.4 2.7l3.9.3v20l18.3.3 18.2.2v-20.9l-3.7-.3c-3.4-.3-3.8-.6-3.8-3 0-3.3-.8-4.1-4.2-4.2-2.3-.1-2.7-.6-2.9-3.3-.1-2 .2-3.4.9-3.4.7-.1 2.3-.2 3.7-.3 2.2-.1 2.5-.6 2.5-3.6 0-3.3.2-3.5 3.8-3.8 3.5-.3 3.7-.5 3.7-3.8V210h7c7.1 0 7.5-.2 7.1-4.2-.2-2 1.6-3.3 4.9-3.3 2.4-.1 2.5-.3 2.6-7l.1-7 3.6-.3c3.5-.3 3.7-.5 3.7-3.8 0-3.2.2-3.4 3.5-3.4h3.5v-14.5c0-13.1.2-14.5 1.8-14.6 6.2-.4 5.7.9 5.7-14.6.1-15.6.3-15-5.7-14.4-1.6.2-1.8-1.1-1.8-14.2 0-15.4-.3-16.2-4.8-15-1.8.4-2.1 0-2.4-3.4-.3-3.6-.5-3.8-3.7-3.9-3.3 0-3.5-.2-3.5-3.5v-3.4l18.2-.3L239 79V57.3h-7c-4.1.1-7.1.5-7.2 1.1 0 .6-.1 2.2-.2 3.6-.1 2.5-.1 2.5-10.8 2.6-7.3.1-10.8-.2-10.9-1-.1-.6-.2-8.8-.3-18.1-.1-18.6.4-17-5.8-17.4-1.4-.1-1.6-1.2-1.4-6.6.1-3.6-.1-6.9-.4-7.3-.3-.4-1.8-.7-3.5-.7-2.7 0-3.1-.4-3.5-3.5l-.5-3.6-10.2.1c-10.6.1-11.2-.1-10.8-4.3l.2-2.2h-36.4c-20 0-36.4.3-36.5.7z"/></svg>