<?xml version="1.0" standalone="no"?>
<!DOCTYPE svg PUBLIC "-//W3C//DTD SVG 20010904//EN"
 "http://www.w3.org/TR/2001/REC-SVG-20010904/DTD/svg10.dtd">
<svg version="1.0" xmlns="http://www.w3.org/2000/svg" width="260.000000pt" height="260.000000pt" viewBox="0 0 260.000000 260.000000" preserveAspectRatio="xMidYMid meet">
<metadata>
Created by potrace 1.14, written by Peter Selinger 2001-2017
</metadata>
<g transform="translate(0.000000,260.000000) scale(0.100000,-0.100000)" fill="#000000" stroke="none">
<path d="M938 2593 c0 -5 -1 -19 -2 -33 -1 -24 -3 -25 -71 -25 l-70 0 -5 -35
c-3 -21 -11 -36 -20 -36 -8 -1 -23 -2 -32 -3 -14 -1 -18 -10 -18 -35 0 -33 -2
-35 -37 -38 l-37 -3 0 -65 c1 -69 -5 -79 -42 -75 -15 1 -25 -4 -28 -14 -2 -9
-3 -107 -2 -219 l1 -202 -111 0 -111 0 1 33 c1 31 -1 32 -44 37 -25 3 -57 3
-73 1 l-27 -3 0 -107 0 -107 108 0 107 1 0 -110 0 -109 -35 0 -35 -1 0 -183
c0 -177 0 -183 20 -181 58 4 56 7 55 -103 -3 -198 -5 -188 35 -188 33 0 35 -2
35 -34 0 -33 2 -35 37 -38 l37 -3 0 -70 c1 -67 2 -70 26 -71 48 -3 51 -4 49
-21 -5 -51 -3 -53 71 -53 l70 0 0 -34 c0 -33 2 -35 37 -38 l37 -3 -1 -65 c-1
-36 -2 -69 -2 -73 -1 -5 -11 -8 -23 -7 -47 4 -48 3 -48 -73 l0 -72 -32 0 c-39
0 -38 2 -38 -75 l0 -60 180 0 c204 0 184 -10 180 92 -1 46 -1 46 30 44 39 -3
45 6 45 74 0 30 3 60 7 65 9 14 198 10 208 -4 4 -7 5 -23 2 -36 -4 -21 0 -24
34 -27 l39 -3 0 -100 0 -100 183 -3 182 -2 0 104 0 105 -37 3 c-34 3 -38 6
-38 30 0 33 -8 41 -42 42 -23 1 -27 6 -29 33 -1 20 2 34 9 34 7 1 23 2 37 3
22 1 25 6 25 36 0 33 2 35 38 38 35 3 37 5 37 38 l0 34 70 0 c71 0 75 2 71 42
-2 20 16 33 49 33 24 1 25 3 26 70 l1 70 36 3 c35 3 37 5 37 38 0 32 2 34 35
34 l35 0 0 145 c0 131 2 145 18 146 62 4 57 -9 57 146 1 156 3 150 -57 144
-16 -2 -18 11 -18 142 0 154 -3 162 -48 150 -18 -4 -21 0 -24 34 -3 36 -5 38
-37 39 -33 0 -35 2 -35 35 l0 34 182 3 182 2 0 109 0 108 -70 0 c-41 -1 -71
-5 -72 -11 0 -6 -1 -22 -2 -36 -1 -25 -1 -25 -108 -26 -73 -1 -108 2 -109 10
-1 6 -2 88 -3 181 -1 186 4 170 -58 174 -14 1 -16 12 -14 66 1 36 -1 69 -4 73
-3 4 -18 7 -35 7 -27 0 -31 4 -35 35 l-5 36 -102 -1 c-106 -1 -112 1 -108 43
l2 22 -364 0 c-200 0 -364 -3 -365 -7z"></path>
</g>
</svg>
