<svg width="64" height="64" fill="none" xmlns="http://www.w3.org/2000/svg"><path fill-rule="evenodd" clip-rule="evenodd" d="M13.296 20.867H8a2.5 2.5 0 0 0-2.5 2.5V41.19a2.5 2.5 0 0 0 2.5 2.5h12.951a322.442 322.442 0 0 0 5.394 5.817c1.564 1.64 3.19 3.3 4.505 4.529.648.606 1.275 1.16 1.809 1.558.255.191.579.417.928.588.17.084.448.206.792.276.309.062.997.15 1.74-.222a2.615 2.615 0 0 0 1.13-1.11c.124-.23.195-.441.233-.566.08-.259.129-.525.163-.737.07-.445.127-1.014.176-1.646.098-1.282.178-3.05.24-5.117.014-.448.027-.912.039-1.389l-4.907-4.907c-.03 2.236-.074 4.323-.13 6.144-.024.807-.05 1.556-.08 2.24a149.064 149.064 0 0 1-3.016-3.09 316.743 316.743 0 0 1-5.536-5.974l-.376-.418-.099-.109-.024-.028-.007-.006-.001-.002-1.861 1.669 1.86-1.67a2.5 2.5 0 0 0-1.86-.83H10.5V25.867h7.796l-5-5Zm10.677-3.465 3.541 3.541c.78-.875 1.63-1.821 2.488-2.76a155.765 155.765 0 0 1 2.987-3.192c.027.646.052 1.348.075 2.1.083 2.725.138 6.045.166 9.567l5.02 5.02c-.002-5.344-.065-10.676-.189-14.738-.063-2.067-.142-3.835-.24-5.117a21.384 21.384 0 0 0-.176-1.646 5.573 5.573 0 0 0-.163-.738 3.135 3.135 0 0 0-.232-.566 2.615 2.615 0 0 0-1.132-1.109 2.682 2.682 0 0 0-1.787-.21 3.268 3.268 0 0 0-.795.296c-.347.18-.67.415-.923.614-.53.417-1.155.993-1.803 1.625-1.312 1.281-2.937 3.01-4.5 4.721-.804.88-1.6 1.765-2.337 2.592Zm21.002 21.002-3.597-3.597a4.25 4.25 0 0 0 .24-.487c.24-.577.382-1.285.382-2.32s-.141-1.743-.382-2.32c-.24-.577-.644-1.176-1.378-1.905a2.5 2.5 0 0 1 3.52-3.55c1.068 1.059 1.915 2.19 2.474 3.532.558 1.341.766 2.74.766 4.243 0 1.504-.208 2.902-.766 4.243a9.69 9.69 0 0 1-1.26 2.16Zm6.09 6.09-3.537-3.537c1.51-1.407 2.456-2.672 3.048-3.975.616-1.355.924-2.914.924-4.982s-.308-3.627-.924-4.982c-.62-1.362-1.624-2.683-3.258-4.168a2.5 2.5 0 1 1 3.364-3.7c1.971 1.792 3.466 3.644 4.446 5.8.983 2.162 1.372 4.465 1.372 7.05 0 2.586-.39 4.888-1.372 7.05-.915 2.014-2.28 3.762-4.063 5.445Z" fill="#999"/><path d="M6.5 7 57 57.5" stroke="#999" stroke-width="5" stroke-linecap="round" stroke-linejoin="round"/></svg>