<svg width="64" height="64" viewBox="0 0 64 64" fill="none" xmlns="http://www.w3.org/2000/svg">
    <path fill-rule="evenodd" clip-rule="evenodd"
        d="M13.296 20.8671L8 20.8671C6.61929 20.8671 5.5 21.9864 5.5 23.3671L5.5 41.1899C5.5 42.5706 6.61929 43.6899 8 43.6899L20.9515 43.6899C21.2586 44.0286 21.6484 44.4572 22.099 44.9496C23.2401 46.1966 24.7757 47.8579 26.3458 49.5067C27.9087 51.1479 29.5351 52.8074 30.8495 54.036C31.4978 54.6419 32.1254 55.1953 32.6586 55.5945C32.9137 55.7855 33.238 56.0106 33.5869 56.1821C33.7579 56.2662 34.035 56.388 34.379 56.4576C34.6879 56.5202 35.3762 56.6074 36.1189 56.2356C36.8494 55.87 37.1716 55.2723 37.2497 55.1266C37.3734 54.8957 37.4442 54.6848 37.4821 54.5605C37.5611 54.3015 37.6107 54.0348 37.6445 53.823C37.7155 53.3781 37.7724 52.8094 37.8208 52.177C37.919 50.8945 37.9985 49.1265 38.0613 47.0602C38.075 46.6121 38.0879 46.1485 38.1 45.6711L33.1929 40.764C33.1621 42.9999 33.119 45.0873 33.0637 46.9082C33.0391 47.7146 33.0123 48.464 32.9834 49.1476C32.0472 48.2213 31.0071 47.1512 29.9667 46.0586C28.4275 44.4423 26.9161 42.8073 25.7877 41.5741C25.224 40.9581 24.757 40.4437 24.4313 40.0837C24.2685 39.9037 24.1411 39.7624 24.0546 39.6664L23.9563 39.5571L23.9315 39.5295L23.9254 39.5227L23.924 39.5211L23.9237 39.5208L22.0625 41.1899L23.9237 39.5207C23.4495 38.992 22.7727 38.6899 22.0625 38.6899L10.5 38.6899L10.5 25.8671L18.296 25.8671L13.296 20.8671ZM23.973 17.4019L27.5144 20.9433C28.2939 20.0677 29.1437 19.122 30.0022 18.1821C31.0311 17.0555 32.0602 15.951 32.9892 14.9909C33.0159 15.6367 33.0408 16.3394 33.0637 17.0916C33.1465 19.8156 33.2019 23.1362 33.2295 26.6584L38.2499 31.6789C38.2475 26.3339 38.1849 21.0018 38.0613 16.9396C37.9985 14.8733 37.919 13.1053 37.8208 11.8228C37.7724 11.1905 37.7155 10.6218 37.6445 10.1769C37.6107 9.96514 37.5611 9.69848 37.482 9.43937C37.4441 9.31506 37.3733 9.10413 37.2496 8.87322C37.1715 8.72747 36.849 8.12947 36.118 7.76396C35.3512 7.38054 34.6418 7.48499 34.3309 7.55429C33.9831 7.63182 33.7051 7.76197 33.5357 7.85016C33.1888 8.03068 32.8669 8.26529 32.6134 8.46428C32.0831 8.88053 31.4578 9.45672 30.8103 10.0887C29.4978 11.37 27.8729 13.0994 26.3103 14.8101C25.506 15.6907 24.7108 16.5746 23.973 17.4019ZM44.9749 38.4039L41.3776 34.8066C41.4727 34.6412 41.5517 34.4798 41.6182 34.3201C41.8587 33.7429 42 33.0349 42 32C42 30.9652 41.8587 30.2571 41.6182 29.6799C41.3777 29.1027 40.9744 28.5038 40.2396 27.7752C39.2593 26.803 39.2526 25.2201 40.2249 24.2397C41.1971 23.2593 42.78 23.2527 43.7604 24.2249C44.828 25.2836 45.6747 26.4155 46.2336 27.7569C46.7925 29.0982 47 30.4965 47 32C47 33.5036 46.7925 34.9018 46.2336 36.2432C45.9076 37.0257 45.4836 37.7369 44.9749 38.4039ZM51.0655 44.4945L47.5282 40.9571C49.0384 39.5503 49.9838 38.2845 50.5759 36.9818C51.1917 35.627 51.5 34.0683 51.5 32C51.5 29.9317 51.1917 28.3731 50.5759 27.0182C49.9568 25.6562 48.9516 24.3346 47.3184 22.8499C46.2967 21.9212 46.2214 20.3401 47.1501 19.3184C48.0788 18.2967 49.6599 18.2214 50.6816 19.1501C52.6532 20.9424 54.148 22.7939 55.1277 24.9492C56.1107 27.1117 56.5 29.4146 56.5 32C56.5 34.5855 56.1107 36.8884 55.1277 39.0509C54.2126 41.064 52.8482 42.8121 51.0655 44.4945Z"
        fill="#999" />
    <path d="M6.5 7L57 57.5" stroke="#999" stroke-width="5" stroke-linecap="round" stroke-linejoin="round" />
</svg>